<?xml version="1.0" standalone="no"?>
<!DOCTYPE svg PUBLIC "-//W3C//DTD SVG 20010904//EN"
 "http://www.w3.org/TR/2001/REC-SVG-20010904/DTD/svg10.dtd">
<svg version="1.0" xmlns="http://www.w3.org/2000/svg"
 width="152.000000pt" height="152.000000pt" viewBox="0 0 152.000000 152.000000"
 preserveAspectRatio="xMidYMid meet">
<metadata>
Created by potrace 1.14, written by Peter Selinger 2001-2017
</metadata>
<g transform="translate(0.000000,152.000000) scale(0.100000,-0.100000)"
fill="#000000" stroke="none">
<path d="M735 1501 c-9 -7 -263 -156 -390 -227 -22 -12 -85 -49 -140 -81
l-100 -59 -3 -381 -2 -381 162 -93 c90 -52 172 -99 183 -106 11 -7 27 -16 35
-20 8 -4 71 -40 139 -80 121 -72 147 -82 167 -64 5 5 36 23 69 41 95 53 181
102 488 282 l68 39 -3 146 -3 147 -54 32 -55 33 3 51 c2 36 -1 50 -11 51 -93
6 -103 4 -102 -17 0 -20 -3 -19 -60 13 -34 19 -75 43 -91 53 -36 22 -36 22
-185 -68 l-95 -57 -3 -67 c-2 -38 1 -68 6 -68 5 0 60 29 122 65 62 36 116 65
120 65 5 0 72 -37 149 -81 l141 -81 0 -75 c0 -61 -3 -75 -17 -80 -10 -4 -46
-24 -81 -45 -34 -21 -64 -38 -66 -38 -2 0 -61 -34 -131 -75 -69 -41 -128 -75
-131 -75 -2 0 -26 -14 -54 -31 l-50 -31 -58 33 c-31 17 -73 41 -92 52 -46 26
-283 163 -340 197 l-44 26 -1 307 0 306 125 73 c69 40 139 80 155 89 17 9 79
46 140 82 l110 65 50 -28 c27 -16 113 -65 190 -109 100 -58 145 -79 160 -74
28 8 95 52 95 61 0 8 -30 27 -258 158 -262 152 -240 141 -257 125z"/>
<path d="M700 1211 c-25 -15 -66 -40 -92 -54 -26 -15 -100 -56 -163 -93 l-115
-66 2 -246 3 -247 185 -107 c102 -60 197 -115 213 -122 l27 -14 0 68 c0 75 1
73 -80 118 -30 17 -93 52 -140 79 l-85 49 -3 175 -2 175 152 88 153 88 40 -22
c22 -12 57 -31 78 -42 l39 -21 41 23 c45 25 73 47 66 53 -14 13 -257 147 -265
147 -5 0 -29 -13 -54 -29z"/>
<path d="M920 525 l0 -84 83 2 82 2 2 83 2 82 -84 0 -85 0 0 -85z m91 2 c-13
-13 -26 -3 -16 12 3 6 11 8 17 5 6 -4 6 -10 -1 -17z"/>
</g>
</svg>
